<svg width="7" height="9" viewBox="0 0 7 9" fill="none" xmlns="http://www.w3.org/2000/svg">
<path d="M2.73438 0C2.23264 0 1.81705 0.398036 1.76111 0.9H0.984375C0.445221 0.9 0 1.35794 0 1.9125V7.9875C0 8.54206 0.445221 9 0.984375 9H6.01562C6.55478 9 7 8.54206 7 7.9875V1.9125C7 1.35794 6.55478 0.9 6.01562 0.9H5.23889C5.18295 0.398036 4.76736 0 4.26562 0H2.73438ZM2.73438 0.675H4.26562C4.47022 0.675 4.59375 0.802059 4.59375 1.0125C4.59375 1.22294 4.47022 1.35 4.26562 1.35H2.73438C2.52978 1.35 2.40625 1.22294 2.40625 1.0125C2.40625 0.802059 2.52978 0.675 2.73438 0.675ZM0.984375 1.575H1.91833C2.09602 1.84546 2.39673 2.025 2.73438 2.025H4.26562C4.60327 2.025 4.90398 1.84546 5.08167 1.575H6.01562C6.22022 1.575 6.34375 1.70206 6.34375 1.9125V7.9875C6.34375 8.19794 6.22022 8.325 6.01562 8.325H0.984375C0.779779 8.325 0.65625 8.19794 0.65625 7.9875V1.9125C0.65625 1.70206 0.779779 1.575 0.984375 1.575ZM1.85938 3.15C1.81589 3.14937 1.77273 3.15763 1.73238 3.17431C1.69203 3.19098 1.6553 3.21574 1.62434 3.24715C1.59337 3.27855 1.56878 3.31597 1.552 3.35723C1.53522 3.39849 1.52658 3.44277 1.52658 3.4875C1.52658 3.53223 1.53522 3.57651 1.552 3.61777C1.56878 3.65903 1.59337 3.69645 1.62434 3.72785C1.6553 3.75926 1.69203 3.78402 1.73238 3.80069C1.77273 3.81737 1.81589 3.82563 1.85938 3.825H5.14062C5.18411 3.82563 5.22727 3.81737 5.26762 3.80069C5.30797 3.78402 5.3447 3.75926 5.37566 3.72785C5.40663 3.69645 5.43121 3.65903 5.448 3.61777C5.46478 3.57651 5.47342 3.53223 5.47342 3.4875C5.47342 3.44277 5.46478 3.39849 5.448 3.35723C5.43121 3.31597 5.40663 3.27855 5.37566 3.24715C5.3447 3.21574 5.30797 3.19098 5.26762 3.17431C5.22727 3.15763 5.18411 3.14937 5.14062 3.15H1.85938ZM1.85938 4.95C1.81589 4.94937 1.77273 4.95763 1.73238 4.97431C1.69203 4.99098 1.6553 5.01574 1.62434 5.04715C1.59337 5.07855 1.56878 5.11597 1.552 5.15723C1.53522 5.19849 1.52658 5.24277 1.52658 5.2875C1.52658 5.33223 1.53522 5.37651 1.552 5.41777C1.56878 5.45903 1.59337 5.49645 1.62434 5.52785C1.6553 5.55926 1.69203 5.58402 1.73238 5.60069C1.77273 5.61737 1.81589 5.62563 1.85938 5.625L5.15224 5.64168C5.19572 5.64231 5.23889 5.63405 5.27924 5.61737C5.31959 5.60069 5.35631 5.57593 5.38728 5.54453C5.41824 5.51313 5.44283 5.47571 5.45962 5.43445C5.4764 5.39319 5.48504 5.3489 5.48504 5.30418C5.48504 5.25945 5.4764 5.21517 5.45962 5.17391C5.44283 5.13264 5.41824 5.09523 5.38728 5.06382C5.35631 5.03242 5.31959 5.00766 5.27924 4.99098C5.23889 4.97431 5.19572 4.96604 5.15224 4.96668L1.85938 4.95ZM1.85938 6.75C1.81589 6.74937 1.77273 6.75763 1.73238 6.77431C1.69203 6.79098 1.6553 6.81574 1.62434 6.84715C1.59337 6.87855 1.56878 6.91597 1.552 6.95723C1.53522 6.99849 1.52658 7.04277 1.52658 7.0875C1.52658 7.13223 1.53522 7.17651 1.552 7.21777C1.56878 7.25903 1.59337 7.29645 1.62434 7.32785C1.6553 7.35926 1.69203 7.38402 1.73238 7.40069C1.77273 7.41737 1.81589 7.42563 1.85938 7.425H4.26562C4.30911 7.42563 4.35227 7.41737 4.39262 7.40069C4.43297 7.38402 4.4697 7.35926 4.50066 7.32785C4.53163 7.29645 4.55622 7.25903 4.573 7.21777C4.58978 7.17651 4.59842 7.13223 4.59842 7.0875C4.59842 7.04277 4.58978 6.99849 4.573 6.95723C4.55622 6.91597 4.53163 6.87855 4.50066 6.84715C4.4697 6.81574 4.43297 6.79098 4.39262 6.77431C4.35227 6.75763 4.30911 6.74937 4.26562 6.75H1.85938Z" fill="#353535"/>
</svg>
